<?xml version="1.0" encoding="UTF-8"?>
<svg width="512px" height="512px" viewBox="0 0 512 512" version="1.1" xmlns="http://www.w3.org/2000/svg" xmlns:xlink="http://www.w3.org/1999/xlink">
    <!-- Generator: Sketch 62 (91390) - https://sketch.com -->
    <title>Group 2</title>
    <desc>Created with Sketch.</desc>
    <g id="Page-1" stroke="none" stroke-width="1" fill="none" fill-rule="evenodd">
        <g id="Group-2">
            <g id="Group">
                <rect id="Rectangle" fill-opacity="0.954144244" fill="#1A3B34" x="0" y="0" width="512" height="512" rx="32"></rect>
                <path d="M146.432,434.36 C161.621333,434.36 175.402667,431.8 187.776,426.68 C200.149333,421.56 211.456,414.690667 221.696,406.072 C231.936,397.453333 241.28,387.512 249.728,376.248 C258.176,364.984 266.112,353.250667 273.536,341.048 C280.96,328.845333 287.957333,316.557333 294.528,304.184 C301.098667,291.810667 307.712,280.248 314.368,269.496 L314.368,269.496 L380.416,269.496 L383.232,264.888 L317.184,264.888 C319.061333,261.816 321.493333,257.592 324.48,252.216 C327.466667,246.84 330.837333,240.994667 334.592,234.68 C338.346667,228.365333 342.485333,221.965333 347.008,215.48 C351.530667,208.994667 356.096,203.106667 360.704,197.816 C365.312,192.525333 370.005333,188.216 374.784,184.888 C379.562667,181.56 384.085333,179.896 388.352,179.896 C391.765333,179.896 394.496,181.176 396.544,183.736 C398.592,186.296 399.616,190.050667 399.616,195 C399.616,198.925333 399.104,202.594667 398.08,206.008 C397.056,209.421333 395.776,212.664 394.24,215.736 C395.946667,216.077333 397.482667,216.248 398.848,216.248 C404.821333,216.248 410.026667,214.712 414.464,211.64 C418.901333,208.568 421.12,203.96 421.12,197.816 C421.12,194.232 420.309333,191.117333 418.688,188.472 C417.066667,185.826667 414.933333,183.650667 412.288,181.944 C409.642667,180.237333 406.656,178.957333 403.328,178.104 C400,177.250667 396.544,176.824 392.96,176.824 C381.525333,176.824 370.773333,179.810667 360.704,185.784 C350.634667,191.757333 341.376,199.181333 332.928,208.056 C324.48,216.930667 316.885333,226.488 310.144,236.728 C303.402667,246.968 297.557333,256.354667 292.608,264.888 L292.608,264.888 L267.52,264.888 L264.96,269.496 L289.536,269.496 C283.904,278.2 277.930667,288.269333 271.616,299.704 C265.301333,311.138667 258.688,322.872 251.776,334.904 C244.864,346.936 237.610667,358.712 230.016,370.232 C222.421333,381.752 214.4,392.034667 205.952,401.08 C197.504,410.125333 188.672,417.421333 179.456,422.968 C170.24,428.514667 160.597333,431.288 150.528,431.288 C139.434667,431.288 131.413333,428.685333 126.464,423.48 C121.514667,418.274667 119.04,411.234667 119.04,402.36 C119.04,394.168 121.557333,387.426667 126.592,382.136 C131.626667,376.845333 138.24,373.944 146.432,373.432 L146.432,373.432 L146.432,371.384 C144.896,371.042667 143.146667,370.786667 141.184,370.616 C139.221333,370.445333 137.045333,370.36 134.656,370.36 C130.048,370.36 125.525333,371.042667 121.088,372.408 C116.650667,373.773333 112.682667,375.736 109.184,378.296 C105.685333,380.856 102.869333,384.013333 100.736,387.768 C98.6026667,391.522667 97.536,395.874667 97.536,400.824 C97.536,407.309333 99.1146667,412.685333 102.272,416.952 C105.429333,421.218667 109.397333,424.632 114.176,427.192 C118.954667,429.752 124.245333,431.586667 130.048,432.696 C135.850667,433.805333 141.312,434.36 146.432,434.36 Z M347.418,369.21875 L347.418,363.9375 C343.293,359.354167 341.2305,350.583333 341.2305,337.625 C341.2305,326.729167 343.293,318.395833 347.418,312.625 L347.418,312.625 L347.418,308.3125 C343.147167,310.458333 339.553417,314.421875 336.63675,320.203125 C333.720083,325.984375 332.26175,331.770833 332.26175,337.5625 C332.26175,344.333333 333.558625,350.46875 336.152375,355.96875 C338.746125,361.46875 342.501333,365.885417 347.418,369.21875 L347.418,369.21875 Z M362.69925,355 L362.69925,343.8125 L366.44925,339.84375 L376.293,355 L385.57425,355 L371.94925,334.21875 L383.26175,321.53125 L373.8555,321.53125 L362.69925,334.375 L362.69925,307.1875 L354.88675,309.0625 L354.88675,355 L362.69925,355 Z M390.82425,369.21875 C395.740917,365.885417 399.496125,361.46875 402.089875,355.96875 C404.683625,350.46875 405.9805,344.333333 405.9805,337.5625 C405.9805,331.770833 404.522167,325.984375 401.6055,320.203125 C398.688833,314.421875 395.095083,310.458333 390.82425,308.3125 L390.82425,308.3125 L390.82425,312.625 C394.94925,318.395833 397.01175,326.729167 397.01175,337.625 C397.01175,350.583333 394.94925,359.354167 390.82425,363.9375 L390.82425,363.9375 L390.82425,369.21875 Z" id="f(k)" fill="#FFFFFF" fill-rule="nonzero"></path>
            </g>
        </g>
    </g>
</svg>