<?xml version="1.0" encoding="UTF-8"?>
<svg xmlns="http://www.w3.org/2000/svg" xmlns:xlink="http://www.w3.org/1999/xlink" width="16px" height="16px"
     viewBox="0 0 16 16" version="1.1">
    <g id="surface1">
        <path style=" stroke:none;fill-rule:evenodd;fill:rgb(10.196078%,23.137255%,20.392157%);fill-opacity:0.952941;"
              d="M 1 0 L 15 0 C 15.550781 0 16 0.449219 16 1 L 16 15 C 16 15.550781 15.550781 16 15 16 L 1 16 C 0.449219 16 0 15.550781 0 15 L 0 1 C 0 0.449219 0.449219 0 1 0 Z M 1 0 "/>
        <path style=" stroke:none;fill-rule:nonzero;fill:rgb(100%,100%,100%);fill-opacity:1;"
              d="M 4.574219 13.574219 C 5.050781 13.574219 5.480469 13.492188 5.867188 13.332031 C 6.253906 13.171875 6.609375 12.960938 6.929688 12.691406 C 7.246094 12.421875 7.539062 12.109375 7.804688 11.757812 C 8.066406 11.40625 8.316406 11.039062 8.546875 10.65625 C 8.78125 10.277344 9 9.890625 9.203125 9.503906 C 9.410156 9.117188 9.617188 8.757812 9.824219 8.421875 L 11.886719 8.421875 L 11.976562 8.277344 L 9.910156 8.277344 C 9.96875 8.183594 10.046875 8.050781 10.140625 7.882812 C 10.234375 7.714844 10.339844 7.53125 10.457031 7.332031 C 10.574219 7.136719 10.703125 6.9375 10.84375 6.734375 C 10.984375 6.53125 11.128906 6.347656 11.273438 6.183594 C 11.414062 6.015625 11.5625 5.882812 11.710938 5.777344 C 11.863281 5.671875 12.003906 5.621094 12.136719 5.621094 C 12.242188 5.621094 12.328125 5.660156 12.390625 5.742188 C 12.457031 5.820312 12.488281 5.9375 12.488281 6.09375 C 12.488281 6.214844 12.472656 6.332031 12.441406 6.4375 C 12.40625 6.542969 12.367188 6.644531 12.320312 6.742188 C 12.375 6.753906 12.421875 6.757812 12.464844 6.757812 C 12.652344 6.757812 12.8125 6.710938 12.953125 6.613281 C 13.089844 6.519531 13.160156 6.375 13.160156 6.183594 C 13.160156 6.070312 13.132812 5.972656 13.085938 5.890625 C 13.035156 5.808594 12.964844 5.738281 12.882812 5.6875 C 12.800781 5.632812 12.707031 5.59375 12.605469 5.566406 C 12.5 5.539062 12.390625 5.527344 12.28125 5.527344 C 11.921875 5.527344 11.585938 5.617188 11.273438 5.804688 C 10.957031 5.992188 10.667969 6.222656 10.402344 6.5 C 10.140625 6.777344 9.902344 7.078125 9.691406 7.398438 C 9.480469 7.71875 9.296875 8.011719 9.144531 8.277344 L 8.359375 8.277344 L 8.28125 8.421875 L 9.046875 8.421875 C 8.871094 8.695312 8.683594 9.007812 8.488281 9.367188 C 8.289062 9.722656 8.085938 10.089844 7.867188 10.464844 C 7.652344 10.839844 7.425781 11.210938 7.1875 11.570312 C 6.949219 11.929688 6.699219 12.25 6.4375 12.535156 C 6.171875 12.816406 5.894531 13.042969 5.609375 13.21875 C 5.320312 13.390625 5.019531 13.476562 4.703125 13.476562 C 4.355469 13.476562 4.105469 13.394531 3.953125 13.234375 C 3.796875 13.070312 3.71875 12.851562 3.71875 12.574219 C 3.71875 12.316406 3.796875 12.105469 3.957031 11.941406 C 4.113281 11.777344 4.320312 11.6875 4.574219 11.667969 L 4.574219 11.605469 C 4.527344 11.59375 4.472656 11.585938 4.410156 11.582031 C 4.351562 11.578125 4.28125 11.574219 4.207031 11.574219 C 4.0625 11.574219 3.921875 11.59375 3.785156 11.636719 C 3.644531 11.679688 3.519531 11.742188 3.410156 11.820312 C 3.300781 11.902344 3.214844 12 3.148438 12.117188 C 3.082031 12.234375 3.046875 12.371094 3.046875 12.527344 C 3.046875 12.726562 3.097656 12.894531 3.195312 13.03125 C 3.292969 13.164062 3.417969 13.269531 3.566406 13.351562 C 3.71875 13.429688 3.882812 13.488281 4.0625 13.523438 C 4.246094 13.554688 4.414062 13.574219 4.574219 13.574219 Z M 10.855469 11.539062 L 10.855469 11.371094 C 10.726562 11.230469 10.664062 10.957031 10.664062 10.550781 C 10.664062 10.210938 10.726562 9.949219 10.855469 9.769531 L 10.855469 9.632812 C 10.722656 9.703125 10.609375 9.824219 10.519531 10.007812 C 10.429688 10.1875 10.382812 10.367188 10.382812 10.546875 C 10.382812 10.761719 10.421875 10.953125 10.503906 11.125 C 10.585938 11.296875 10.703125 11.433594 10.855469 11.539062 Z M 11.335938 11.09375 L 11.335938 10.742188 L 11.453125 10.621094 L 11.757812 11.09375 L 12.050781 11.09375 L 11.625 10.445312 L 11.976562 10.046875 L 11.683594 10.046875 L 11.335938 10.449219 L 11.335938 9.601562 L 11.089844 9.65625 L 11.089844 11.09375 Z M 12.214844 11.539062 C 12.367188 11.433594 12.484375 11.296875 12.566406 11.125 C 12.644531 10.953125 12.6875 10.761719 12.6875 10.546875 C 12.6875 10.367188 12.640625 10.1875 12.550781 10.007812 C 12.460938 9.824219 12.347656 9.703125 12.214844 9.632812 L 12.214844 9.769531 C 12.34375 9.949219 12.40625 10.210938 12.40625 10.550781 C 12.40625 10.957031 12.34375 11.230469 12.214844 11.371094 Z M 12.214844 11.539062 "/>
    </g>
</svg>
