<?xml version="1.0" encoding="UTF-8"?>
<svg xmlns="http://www.w3.org/2000/svg" xmlns:xlink="http://www.w3.org/1999/xlink" width="16px" height="16px" viewBox="0 0 16 15" version="1.1">
<g id="surface1">
<path style=" stroke:none;fill-rule:evenodd;fill:rgb(10.196078%,23.137255%,20.392157%);fill-opacity:0.952941;" d="M 1 0 L 13.535156 0 C 14.085938 0 14.535156 0.421875 14.535156 0.941406 L 14.535156 12.789062 C 14.535156 13.3125 14.085938 13.734375 13.535156 13.734375 L 1 13.734375 C 0.445312 13.734375 0 13.3125 0 12.789062 L 0 0.941406 C 0 0.421875 0.445312 0 1 0 Z M 1 0 "/>
<path style=" stroke:none;fill-rule:nonzero;fill:rgb(10.196078%,23.137255%,20.392157%);fill-opacity:1;" d="M 13.140625 15 C 13.296875 15 13.441406 14.976562 13.570312 14.925781 C 13.699219 14.875 13.816406 14.804688 13.925781 14.722656 C 14.03125 14.636719 14.128906 14.539062 14.214844 14.429688 C 14.304688 14.316406 14.386719 14.203125 14.464844 14.082031 C 14.539062 13.960938 14.613281 13.839844 14.683594 13.71875 C 14.75 13.597656 14.820312 13.484375 14.890625 13.378906 L 15.578125 13.378906 L 15.605469 13.332031 L 14.917969 13.332031 C 14.9375 13.300781 14.964844 13.261719 14.992188 13.207031 C 15.023438 13.15625 15.058594 13.097656 15.097656 13.035156 C 15.136719 12.972656 15.179688 12.910156 15.226562 12.847656 C 15.277344 12.78125 15.324219 12.722656 15.371094 12.671875 C 15.417969 12.621094 15.46875 12.578125 15.519531 12.546875 C 15.566406 12.511719 15.613281 12.496094 15.660156 12.496094 C 15.695312 12.496094 15.722656 12.507812 15.746094 12.535156 C 15.765625 12.558594 15.777344 12.597656 15.777344 12.644531 C 15.777344 12.683594 15.769531 12.71875 15.761719 12.753906 C 15.75 12.785156 15.734375 12.816406 15.71875 12.847656 C 15.738281 12.851562 15.753906 12.855469 15.769531 12.855469 C 15.832031 12.855469 15.882812 12.839844 15.929688 12.808594 C 15.976562 12.777344 16 12.734375 16 12.671875 C 16 12.636719 15.992188 12.605469 15.976562 12.582031 C 15.957031 12.554688 15.9375 12.53125 15.90625 12.515625 C 15.878906 12.5 15.847656 12.488281 15.816406 12.476562 C 15.78125 12.46875 15.746094 12.464844 15.707031 12.464844 C 15.585938 12.464844 15.476562 12.496094 15.371094 12.554688 C 15.265625 12.613281 15.167969 12.6875 15.082031 12.773438 C 14.992188 12.859375 14.914062 12.953125 14.84375 13.054688 C 14.773438 13.15625 14.714844 13.25 14.664062 13.332031 L 14.402344 13.332031 L 14.375 13.378906 L 14.628906 13.378906 C 14.570312 13.464844 14.507812 13.5625 14.445312 13.675781 C 14.378906 13.789062 14.308594 13.902344 14.238281 14.019531 C 14.164062 14.140625 14.089844 14.253906 14.011719 14.367188 C 13.929688 14.480469 13.847656 14.582031 13.761719 14.671875 C 13.671875 14.761719 13.582031 14.832031 13.484375 14.886719 C 13.386719 14.941406 13.289062 14.96875 13.183594 14.96875 C 13.066406 14.96875 12.984375 14.945312 12.933594 14.894531 C 12.882812 14.839844 12.855469 14.773438 12.855469 14.683594 C 12.855469 14.605469 12.882812 14.539062 12.933594 14.484375 C 12.988281 14.433594 13.054688 14.40625 13.140625 14.402344 L 13.140625 14.378906 C 13.125 14.375 13.105469 14.375 13.085938 14.371094 C 13.066406 14.371094 13.042969 14.371094 13.019531 14.371094 C 12.96875 14.371094 12.921875 14.375 12.875 14.390625 C 12.832031 14.402344 12.789062 14.421875 12.753906 14.449219 C 12.714844 14.472656 12.6875 14.503906 12.664062 14.542969 C 12.644531 14.578125 12.632812 14.621094 12.632812 14.671875 C 12.632812 14.734375 12.648438 14.785156 12.679688 14.828125 C 12.714844 14.871094 12.753906 14.902344 12.804688 14.929688 C 12.855469 14.953125 12.910156 14.972656 12.96875 14.984375 C 13.03125 14.996094 13.085938 15 13.140625 15 Z M 15.21875 14.382812 L 15.21875 14.328125 C 15.179688 14.285156 15.15625 14.199219 15.15625 14.074219 C 15.15625 13.96875 15.179688 13.890625 15.21875 13.832031 L 15.21875 13.792969 C 15.175781 13.8125 15.140625 13.851562 15.109375 13.90625 C 15.078125 13.960938 15.0625 14.019531 15.0625 14.074219 C 15.0625 14.140625 15.078125 14.199219 15.105469 14.253906 C 15.132812 14.304688 15.167969 14.347656 15.21875 14.382812 Z M 15.371094 14.203125 L 15.371094 14.09375 L 15.410156 14.054688 L 15.523438 14.203125 L 15.625 14.203125 L 15.472656 14 L 15.601562 13.875 L 15.496094 13.875 L 15.371094 14 L 15.371094 13.734375 L 15.28125 13.75 L 15.28125 14.203125 Z M 15.65625 14.382812 C 15.707031 14.347656 15.746094 14.304688 15.773438 14.253906 C 15.800781 14.199219 15.8125 14.140625 15.8125 14.074219 C 15.8125 14.019531 15.796875 13.960938 15.769531 13.90625 C 15.738281 13.851562 15.699219 13.8125 15.65625 13.792969 L 15.65625 13.832031 C 15.699219 13.890625 15.71875 13.96875 15.71875 14.074219 C 15.71875 14.199219 15.699219 14.285156 15.65625 14.328125 Z M 15.65625 14.382812 "/>
<path style=" stroke:none;fill-rule:evenodd;fill:rgb(100%,100%,100%);fill-opacity:1;" d="M 13.691406 6.882812 L 11.601562 8.222656 L 11.601562 5.539062 Z M 13.691406 6.882812 "/>
<path style=" stroke:none;fill-rule:evenodd;fill:rgb(100%,100%,100%);fill-opacity:1;" d="M 2.964844 6.882812 L 0.875 8.222656 L 0.875 5.539062 Z M 2.964844 6.882812 "/>
<path style=" stroke:none;fill-rule:evenodd;fill:rgb(100%,100%,100%);fill-opacity:1;" d="M 9.136719 3.09375 L 10.355469 3.09375 L 10.355469 10.667969 L 9.136719 10.667969 Z M 9.136719 3.09375 "/>
<path style=" stroke:none;fill-rule:evenodd;fill:rgb(100%,100%,100%);fill-opacity:1;" d="M 6.675781 3.09375 L 7.890625 3.09375 L 7.890625 10.667969 L 6.675781 10.667969 Z M 6.675781 3.09375 "/>
<path style=" stroke:none;fill-rule:evenodd;fill:rgb(100%,100%,100%);fill-opacity:1;" d="M 4.210938 3.09375 L 5.425781 3.09375 L 5.425781 10.667969 L 4.210938 10.667969 Z M 4.210938 3.09375 "/>
</g>
</svg>
