<?xml version="1.0" encoding="UTF-8"?>
<svg xmlns="http://www.w3.org/2000/svg" xmlns:xlink="http://www.w3.org/1999/xlink" width="16px" height="16px" viewBox="0 0 16 16" version="1.1">
<g id="surface1">
<path style=" stroke:none;fill-rule:evenodd;fill:rgb(10.196078%,23.137255%,20.392157%);fill-opacity:0.952941;" d="M 1 0 L 13.535156 0 C 14.085938 0 14.535156 0.445312 14.535156 1 L 14.535156 13.535156 C 14.535156 14.085938 14.085938 14.535156 13.535156 14.535156 L 1 14.535156 C 0.445312 14.535156 0 14.085938 0 13.535156 L 0 1 C 0 0.445312 0.445312 0 1 0 Z M 1 0 "/>
<path style=" stroke:none;fill-rule:nonzero;fill:rgb(100%,100%,100%);fill-opacity:1;" d="M 1.925781 9.480469 C 2.183594 9.480469 2.421875 9.4375 2.632812 9.351562 C 2.84375 9.261719 3.035156 9.144531 3.210938 9 C 3.382812 8.851562 3.542969 8.679688 3.6875 8.488281 C 3.832031 8.296875 3.96875 8.097656 4.09375 7.886719 C 4.222656 7.679688 4.339844 7.46875 4.453125 7.257812 C 4.566406 7.046875 4.675781 6.851562 4.789062 6.667969 L 5.917969 6.667969 L 5.964844 6.585938 L 4.839844 6.585938 C 4.871094 6.535156 4.914062 6.464844 4.964844 6.371094 C 5.015625 6.28125 5.070312 6.179688 5.136719 6.070312 C 5.199219 5.964844 5.269531 5.855469 5.347656 5.742188 C 5.425781 5.632812 5.503906 5.53125 5.582031 5.441406 C 5.660156 5.351562 5.738281 5.277344 5.820312 5.222656 C 5.902344 5.164062 5.980469 5.136719 6.054688 5.136719 C 6.109375 5.136719 6.15625 5.15625 6.191406 5.203125 C 6.226562 5.246094 6.246094 5.308594 6.246094 5.394531 C 6.246094 5.460938 6.238281 5.523438 6.21875 5.582031 C 6.203125 5.640625 6.179688 5.695312 6.152344 5.75 C 6.183594 5.753906 6.207031 5.757812 6.230469 5.757812 C 6.335938 5.757812 6.421875 5.730469 6.5 5.679688 C 6.574219 5.625 6.613281 5.546875 6.613281 5.441406 C 6.613281 5.382812 6.597656 5.328125 6.570312 5.28125 C 6.542969 5.238281 6.507812 5.199219 6.460938 5.171875 C 6.417969 5.140625 6.367188 5.121094 6.308594 5.105469 C 6.25 5.089844 6.191406 5.082031 6.132812 5.082031 C 5.9375 5.082031 5.753906 5.136719 5.582031 5.238281 C 5.410156 5.339844 5.25 5.464844 5.109375 5.617188 C 4.964844 5.769531 4.832031 5.933594 4.71875 6.105469 C 4.605469 6.28125 4.503906 6.441406 4.417969 6.585938 L 3.992188 6.585938 L 3.949219 6.667969 L 4.367188 6.667969 C 4.269531 6.816406 4.167969 6.988281 4.0625 7.183594 C 3.953125 7.378906 3.839844 7.578125 3.722656 7.78125 C 3.605469 7.988281 3.480469 8.191406 3.351562 8.386719 C 3.222656 8.582031 3.085938 8.757812 2.941406 8.914062 C 2.796875 9.066406 2.644531 9.191406 2.488281 9.285156 C 2.332031 9.382812 2.167969 9.429688 1.996094 9.429688 C 1.804688 9.429688 1.667969 9.382812 1.585938 9.296875 C 1.5 9.207031 1.457031 9.085938 1.457031 8.933594 C 1.457031 8.796875 1.5 8.679688 1.585938 8.589844 C 1.671875 8.5 1.785156 8.449219 1.925781 8.441406 L 1.925781 8.40625 C 1.898438 8.398438 1.871094 8.394531 1.835938 8.394531 C 1.804688 8.390625 1.765625 8.386719 1.726562 8.386719 C 1.644531 8.386719 1.570312 8.398438 1.492188 8.421875 C 1.417969 8.445312 1.351562 8.480469 1.289062 8.523438 C 1.230469 8.566406 1.183594 8.621094 1.144531 8.6875 C 1.109375 8.75 1.089844 8.824219 1.089844 8.910156 C 1.089844 9.019531 1.117188 9.113281 1.171875 9.183594 C 1.226562 9.257812 1.292969 9.316406 1.375 9.359375 C 1.457031 9.402344 1.546875 9.433594 1.644531 9.453125 C 1.746094 9.472656 1.839844 9.480469 1.925781 9.480469 Z M 5.339844 8.375 L 5.339844 8.285156 C 5.269531 8.203125 5.234375 8.054688 5.234375 7.832031 C 5.234375 7.644531 5.269531 7.5 5.339844 7.398438 L 5.339844 7.324219 C 5.265625 7.363281 5.207031 7.429688 5.15625 7.53125 C 5.109375 7.628906 5.082031 7.730469 5.082031 7.828125 C 5.082031 7.945312 5.105469 8.050781 5.148438 8.148438 C 5.191406 8.242188 5.253906 8.316406 5.339844 8.375 Z M 5.609375 8.121094 L 5.609375 7.925781 L 5.671875 7.859375 L 5.835938 8.121094 L 5.988281 8.121094 L 5.761719 7.761719 L 5.949219 7.542969 L 5.792969 7.542969 L 5.609375 7.765625 L 5.609375 7.296875 L 5.480469 7.328125 L 5.480469 8.121094 Z M 6.101562 8.375 C 6.183594 8.316406 6.25 8.242188 6.292969 8.148438 C 6.335938 8.050781 6.355469 7.945312 6.355469 7.828125 C 6.355469 7.730469 6.332031 7.628906 6.285156 7.53125 C 6.234375 7.429688 6.175781 7.363281 6.101562 7.324219 L 6.101562 7.398438 C 6.171875 7.5 6.207031 7.644531 6.207031 7.832031 C 6.207031 8.054688 6.171875 8.203125 6.101562 8.285156 Z M 6.101562 8.375 "/>
<path style=" stroke:none;fill-rule:nonzero;fill:rgb(100%,100%,100%);fill-opacity:1;" d="M 9.199219 7.042969 L 9.199219 6.800781 L 7.359375 6.800781 L 7.359375 7.042969 Z M 9.199219 7.765625 L 9.199219 7.519531 L 7.359375 7.519531 L 7.359375 7.765625 Z M 9.199219 7.765625 "/>
<path style=" stroke:none;fill-rule:nonzero;fill:rgb(100%,100%,100%);fill-opacity:1;" d="M 10.457031 7.859375 C 10.5 7.859375 10.539062 7.847656 10.570312 7.828125 C 10.605469 7.808594 10.632812 7.78125 10.652344 7.746094 C 10.671875 7.710938 10.683594 7.667969 10.683594 7.625 C 10.683594 7.582031 10.671875 7.542969 10.652344 7.507812 C 10.632812 7.472656 10.605469 7.445312 10.570312 7.421875 C 10.539062 7.402344 10.5 7.390625 10.457031 7.390625 C 10.414062 7.390625 10.375 7.402344 10.339844 7.421875 C 10.308594 7.445312 10.28125 7.472656 10.261719 7.507812 C 10.238281 7.542969 10.230469 7.582031 10.230469 7.625 C 10.230469 7.667969 10.238281 7.710938 10.261719 7.746094 C 10.28125 7.78125 10.308594 7.808594 10.339844 7.828125 C 10.375 7.847656 10.414062 7.859375 10.457031 7.859375 Z M 11.664062 7.859375 C 11.707031 7.859375 11.746094 7.847656 11.78125 7.828125 C 11.816406 7.808594 11.84375 7.78125 11.863281 7.746094 C 11.882812 7.710938 11.890625 7.667969 11.890625 7.625 C 11.890625 7.582031 11.882812 7.542969 11.863281 7.507812 C 11.84375 7.472656 11.816406 7.445312 11.78125 7.421875 C 11.746094 7.402344 11.707031 7.390625 11.664062 7.390625 C 11.625 7.390625 11.585938 7.402344 11.550781 7.421875 C 11.515625 7.445312 11.488281 7.472656 11.46875 7.507812 C 11.449219 7.542969 11.4375 7.582031 11.4375 7.625 C 11.4375 7.667969 11.449219 7.710938 11.46875 7.746094 C 11.488281 7.78125 11.515625 7.808594 11.550781 7.828125 C 11.585938 7.847656 11.625 7.859375 11.664062 7.859375 Z M 12.871094 7.859375 C 12.914062 7.859375 12.953125 7.847656 12.988281 7.828125 C 13.023438 7.808594 13.050781 7.78125 13.070312 7.746094 C 13.089844 7.710938 13.097656 7.667969 13.097656 7.625 C 13.097656 7.582031 13.089844 7.542969 13.070312 7.507812 C 13.050781 7.472656 13.023438 7.445312 12.988281 7.421875 C 12.953125 7.402344 12.914062 7.390625 12.871094 7.390625 C 12.832031 7.390625 12.792969 7.402344 12.757812 7.421875 C 12.722656 7.445312 12.695312 7.472656 12.675781 7.507812 C 12.65625 7.542969 12.644531 7.582031 12.644531 7.625 C 12.644531 7.667969 12.65625 7.710938 12.675781 7.746094 C 12.695312 7.78125 12.722656 7.808594 12.757812 7.828125 C 12.792969 7.847656 12.832031 7.859375 12.871094 7.859375 Z M 10.445312 7.808594 C 10.40625 7.808594 10.371094 7.789062 10.335938 7.75 C 10.304688 7.714844 10.289062 7.671875 10.289062 7.625 C 10.289062 7.578125 10.304688 7.535156 10.335938 7.5 C 10.371094 7.464844 10.40625 7.445312 10.449219 7.445312 C 10.476562 7.445312 10.488281 7.460938 10.488281 7.492188 L 10.488281 7.761719 C 10.488281 7.792969 10.476562 7.808594 10.445312 7.808594 Z M 11.65625 7.808594 C 11.613281 7.808594 11.578125 7.789062 11.542969 7.75 C 11.511719 7.714844 11.496094 7.671875 11.496094 7.625 C 11.496094 7.578125 11.511719 7.535156 11.542969 7.5 C 11.578125 7.464844 11.613281 7.445312 11.65625 7.445312 C 11.683594 7.445312 11.699219 7.460938 11.699219 7.492188 L 11.699219 7.761719 C 11.699219 7.792969 11.683594 7.808594 11.65625 7.808594 Z M 12.863281 7.808594 C 12.820312 7.808594 12.785156 7.789062 12.753906 7.75 C 12.722656 7.714844 12.703125 7.671875 12.703125 7.625 C 12.703125 7.578125 12.722656 7.535156 12.753906 7.5 C 12.785156 7.464844 12.824219 7.445312 12.863281 7.445312 C 12.890625 7.445312 12.90625 7.460938 12.90625 7.492188 L 12.90625 7.761719 C 12.90625 7.792969 12.890625 7.808594 12.863281 7.808594 Z M 12.863281 7.808594 "/>
<path style=" stroke:none;fill-rule:evenodd;fill:rgb(32.54902%,65.098039%,37.254902%);fill-opacity:1;" d="M 15.984375 11.148438 L 8.90625 15.984375 L 8.90625 6.316406 Z M 15.984375 11.148438 "/>
</g>
</svg>
